<svg width="632" height="604" xmlns="http://www.w3.org/2000/svg" clip-rule="evenodd">
 <metadata/>

 <g>
  <title>background</title>
  <rect fill="none" id="canvas_background" height="606" width="634" y="-1" x="-1"/>
 </g>
 <g>
  <title>Layer 1</title>
  <g id="Ebene 1">
   <path id="svg_1" fill="#002c6d" d="m2,303c0,-165.685 134.315,-300 300,-300c165.685,0 300,134.315 300,300c0,165.685 -134.315,300 -300,300c-165.685,0 -300,-134.315 -300,-300z"/>
  </g>
  <g id="Ebene 2">
   <path id="svg_2" fill="#ffffff" d="m521.414,91.614l22.239,20.202l16.013,37.585l-250.629,298.597l-76.154,-63.901l261.244,-311.401l27.287,18.918z"/>
   <path id="svg_3" fill="#ffffff" d="m304.129,314.105l-63.902,76.155l-138.77,-116.442l63.901,-76.155l138.771,116.442z"/>
   <path id="svg_4" fill="#002c6d" d="m552.511,2.666l76.694,64.549l-69.536,82.197c0,0 -17.56,-28.619 -30.69,-42.706c-13.13,-14.088 -34.862,-34.024 -34.862,-34.024"/>
  </g>
 </g>
</svg>